<svg width="196" height="64" viewBox="0 0 196 64" fill="none" xmlns="http://www.w3.org/2000/svg">
<g clip-path="url(#clip0)">
<path d="M75.0798 19.9529H72.2148V17.9238H80.4728V19.9529H77.5235V28.661H75.0798V19.9529Z" fill="#DB0032"/>
<path d="M80.8086 27.3929C80.8086 26.5474 81.3984 25.8711 82.2411 25.8711C83.0837 25.8711 83.6736 26.4629 83.6736 27.3929C83.6736 28.2383 83.0837 28.8301 82.2411 28.8301C81.3984 28.8301 80.8086 28.2383 80.8086 27.3929Z" fill="#DB0032"/>
<path d="M94.0398 28.3231C93.6184 28.5767 92.6073 28.7458 91.259 28.7458C87.5514 28.7458 85.6133 26.4631 85.6133 23.3349C85.6133 19.6995 88.2255 17.5859 91.4276 17.5859C92.6915 17.5859 93.6184 17.8396 94.0398 18.0932L93.5342 20.0377C93.0286 19.8686 92.3545 19.615 91.5118 19.615C89.5737 19.615 88.057 20.7986 88.057 23.1659C88.057 25.2795 89.3209 26.6322 91.5118 26.6322C92.2702 26.6322 93.0286 26.4631 93.5342 26.294L94.0398 28.3231Z" fill="#DB0032"/>
<path d="M95.8945 27.3929C95.8945 26.5474 96.4844 25.8711 97.327 25.8711C98.1697 25.8711 98.7596 26.4629 98.7596 27.3929C98.7596 28.2383 98.1697 28.8301 97.327 28.8301C96.4844 28.8301 95.8945 28.2383 95.8945 27.3929Z" fill="#DB0032"/>
<path d="M113.926 28.1542C113.168 28.4079 111.735 28.7461 110.387 28.7461C108.449 28.7461 107.016 28.2388 106.005 27.3088C104.994 26.3788 104.488 24.9416 104.488 23.4198C104.488 19.8689 107.1 17.8398 110.64 17.8398C111.988 17.8398 113.083 18.0935 113.589 18.3471L113.083 20.2916C112.493 20.038 111.735 19.8689 110.555 19.8689C108.533 19.8689 107.016 21.0525 107.016 23.3352C107.016 25.5334 108.364 26.8861 110.387 26.8861C110.977 26.8861 111.398 26.8015 111.567 26.717V24.4343H109.881V22.5743H113.842V28.1542H113.926Z" fill="#DB0032"/>
<path d="M123.193 24.0956H119.233V26.6319H123.615V28.661H116.789V17.9238H123.362V19.9529H119.148V22.151H123.109V24.0956H123.193Z" fill="#DB0032"/>
<path d="M126.398 28.6609V17.9238H129.263L131.454 21.8974C132.128 22.9965 132.718 24.3492 133.224 25.6174H133.308C133.14 24.1801 133.14 22.7428 133.14 21.1365V18.0084H135.331V28.7455H132.803L130.527 24.6028C129.853 23.4192 129.179 22.0665 128.674 20.7983H128.589C128.674 22.2356 128.674 23.7574 128.674 25.4483V28.6609H126.398Z" fill="#DB0032"/>
<path d="M146.116 28.3245C145.694 28.4935 144.767 28.7472 143.588 28.7472L143.335 29.2544C143.925 29.4235 144.515 29.8462 144.515 30.5226C144.515 31.6217 143.503 31.9599 142.661 31.9599C142.155 31.9599 141.65 31.8753 141.313 31.6217L141.65 30.6071C141.902 30.7762 142.239 30.8608 142.577 30.8608C142.914 30.8608 143.166 30.7762 143.166 30.4381C143.166 30.0999 142.829 29.9308 141.902 29.8462L142.324 28.7472C139.29 28.3245 137.773 26.2108 137.773 23.4209C137.773 19.7855 140.386 17.6719 143.588 17.6719C144.852 17.6719 145.779 17.9255 146.2 18.1791L145.694 20.1237C145.189 19.9546 144.515 19.7009 143.672 19.7009C141.734 19.7009 140.217 20.8846 140.217 23.2518C140.217 25.3654 141.481 26.7181 143.672 26.7181C144.43 26.7181 145.189 26.549 145.694 26.3799L146.116 28.3245Z" fill="#DB0032"/>
<path d="M148.559 17.9238H151.002V26.6319H155.3V28.661H148.643V17.9238H148.559Z" fill="#DB0032"/>
<path d="M159.85 17.9247V28.6618H157.406V17.9247H159.85ZM157.575 16.2338C157.575 15.642 158.08 15.1348 158.67 15.1348C159.26 15.1348 159.766 15.642 159.766 16.2338C159.766 16.8257 159.344 17.3329 158.67 17.3329C158.08 17.2484 157.575 16.7411 157.575 16.2338Z" fill="#DB0032"/>
<path d="M162.969 17.9238H165.328V22.6583H165.412C165.665 22.2356 165.918 21.8974 166.171 21.4747L168.615 17.9238H171.564L168.025 22.4892L171.732 28.661H168.867L166.255 24.011L165.328 25.1101V28.5764H162.969V17.9238Z" fill="#DB0032"/>
<path d="M180.494 28.661L177.039 17.9238H179.651L180.915 22.4892C181.252 23.7574 181.589 25.0255 181.842 26.2937H181.926C182.179 25.0255 182.516 23.7574 182.938 22.4892L184.286 17.9238H186.898L183.275 28.661H180.494Z" fill="#DB0032"/>
<path d="M195.412 24.0956H191.451V26.6319H195.833V28.661H189.008V17.9238H195.58V19.9529H191.367V22.151H195.328V24.0956H195.412Z" fill="#DB0032"/>
<path d="M73.1401 43.5423C73.8142 43.8805 74.8254 44.2187 75.8365 44.2187C76.932 44.2187 77.5218 43.7959 77.5218 43.0351C77.5218 42.3587 77.0163 42.0205 75.7523 41.5133C73.9827 40.9214 72.803 39.9069 72.803 38.3006C72.803 36.4406 74.3198 35.0879 76.8477 35.0879C78.0274 35.0879 78.9543 35.3415 79.5442 35.5952L79.0386 37.5397C78.6173 37.3706 77.8589 37.0324 76.7635 37.0324C75.7523 37.0324 75.2467 37.5397 75.2467 38.0469C75.2467 38.7233 75.8365 39.0615 77.269 39.5687C79.1229 40.2451 80.0498 41.2596 80.0498 42.7814C80.0498 44.5568 78.7015 46.0786 75.7523 46.0786C74.4883 46.0786 73.3086 45.7405 72.7188 45.4023L73.1401 43.5423Z" fill="#DB0032"/>
<path d="M81.8203 35.4255C82.5787 35.2564 83.5899 35.1719 85.1066 35.1719C86.6234 35.1719 87.6346 35.4255 88.393 36.0173C89.0671 36.5246 89.5727 37.4546 89.5727 38.4691C89.5727 39.4836 89.2356 40.4136 88.5615 41.0054C87.7188 41.7663 86.5391 42.1045 85.1066 42.1045C84.7696 42.1045 84.5168 42.1045 84.264 42.02V45.8245H81.9046V35.4255H81.8203ZM84.264 40.3291C84.4325 40.4136 84.6853 40.4136 85.1066 40.4136C86.3706 40.4136 87.2133 39.7373 87.2133 38.6382C87.2133 37.6237 86.5391 37.0318 85.3594 37.0318C84.8538 37.0318 84.5168 37.1164 84.3483 37.1164V40.3291H84.264Z" fill="#DB0032"/>
<path d="M101.116 40.5833C101.116 44.1341 99.0096 46.2477 95.8918 46.2477C92.6898 46.2477 90.8359 43.8805 90.8359 40.7524C90.8359 37.5397 92.8583 35.0879 96.0604 35.0879C99.3467 35.0879 101.116 37.6242 101.116 40.5833ZM93.4481 40.6678C93.4481 42.7814 94.4593 44.2187 96.0604 44.2187C97.6614 44.2187 98.6726 42.6969 98.6726 40.5833C98.6726 38.6387 97.7457 37.0324 96.0604 37.0324C94.3751 37.0324 93.4481 38.6387 93.4481 40.6678Z" fill="#DB0032"/>
<path d="M103.055 35.4255C103.813 35.2564 104.993 35.1719 106.257 35.1719C107.858 35.1719 108.953 35.4255 109.712 36.0173C110.386 36.5246 110.723 37.2855 110.723 38.3C110.723 39.6527 109.712 40.5827 108.869 40.9209V41.0054C109.627 41.3436 110.049 42.02 110.301 43.0345C110.639 44.2181 110.976 45.6554 111.144 46.0781H108.7C108.532 45.7399 108.279 44.8945 107.942 43.5418C107.689 42.1891 107.184 41.8509 106.172 41.8509H105.414V46.0781H103.055V35.4255ZM105.498 40.0754H106.425C107.605 40.0754 108.363 39.4836 108.363 38.5536C108.363 37.5391 107.689 37.0319 106.594 37.0319C106.004 37.0319 105.667 37.1164 105.498 37.1164V40.0754Z" fill="#DB0032"/>
<path d="M116.539 35.4255C117.213 35.2564 118.477 35.1719 119.657 35.1719C121.174 35.1719 122.016 35.341 122.859 35.7637C123.617 36.1864 124.123 36.8628 124.123 37.8773C124.123 38.8073 123.533 39.7373 122.353 40.16C123.617 40.4982 124.46 41.4282 124.46 42.7809C124.46 43.7954 124.039 44.5563 123.365 45.0636C122.606 45.6554 121.258 46.0781 119.151 46.0781C117.972 46.0781 117.045 45.9935 116.539 45.909V35.4255ZM118.898 39.5682H119.657C120.921 39.5682 121.595 39.0609 121.595 38.2155C121.595 37.37 121.005 36.9473 119.91 36.9473C119.404 36.9473 119.067 36.9473 118.898 37.0319V39.5682ZM118.898 44.3027C119.151 44.3027 119.404 44.3027 119.825 44.3027C120.921 44.3027 121.932 43.8799 121.932 42.7809C121.932 41.6818 121.005 41.2591 119.741 41.2591H118.898V44.3027Z" fill="#DB0032"/>
<path d="M128.673 43.289L127.915 46.0789H125.387L128.673 35.3418H131.875L135.161 46.0789H132.549L131.707 43.289H128.673ZM131.37 41.429L130.695 39.1463C130.527 38.4699 130.274 37.709 130.19 37.0327C130.021 37.709 129.853 38.4699 129.684 39.1463L129.01 41.429H131.37Z" fill="#DB0032"/>
<path d="M136.762 35.2559H139.121V39.9903H139.205C139.458 39.5676 139.711 39.2294 139.964 38.8067L142.407 35.2559H145.357L141.818 39.8212L145.525 45.993H142.66L140.048 41.343L139.121 42.4421V45.9084H136.762V35.2559Z" fill="#DB0032"/>
<path d="M149.739 43.289L148.981 46.0789H146.453L149.739 35.3418H152.942L156.228 46.0789H153.616L152.773 43.289H149.739ZM152.52 41.429L151.846 39.1463C151.678 38.4699 151.425 37.709 151.34 37.0327C151.172 37.709 151.003 38.4699 150.835 39.1463L150.161 41.429H152.52Z" fill="#DB0032"/>
<path d="M157.828 46.0775V35.2559H160.693L162.884 39.2294C163.558 40.3285 164.148 41.6812 164.654 42.9494H164.738C164.569 41.5121 164.569 40.0749 164.569 38.4685V35.3404H166.76V46.0775H164.232L161.957 41.9349C161.283 40.7512 160.609 39.3985 160.103 38.1304H160.019C160.103 39.5676 160.103 41.0894 160.103 42.7803V45.993H157.828V46.0775Z" fill="#DB0032"/>
<path d="M169.121 35.2559H171.565V43.9639H175.862V45.993H169.205V35.2559H169.121Z" fill="#DB0032"/>
<path d="M179.823 35.2559V45.993H177.379V35.2559H179.823Z" fill="#DB0032"/>
<path d="M191.195 45.57C190.437 45.8237 189.005 46.1619 187.656 46.1619C185.718 46.1619 184.286 45.6546 183.275 44.7246C182.263 43.7946 181.758 42.3574 181.758 40.8356C181.758 37.2847 184.37 35.2556 187.909 35.2556C189.257 35.2556 190.353 35.5093 190.858 35.7629L190.353 37.7074C189.763 37.4538 189.005 37.2847 187.825 37.2847C185.803 37.2847 184.286 38.4683 184.286 40.751C184.286 42.9492 185.634 44.3019 187.656 44.3019C188.246 44.3019 188.667 44.2173 188.836 44.1328V41.8501H187.151V39.9901H191.111V45.57H191.195ZM186.224 32.6348C186.308 32.9729 186.477 33.3957 187.151 33.3957C187.825 33.3957 188.078 33.0575 188.162 32.6348H189.426C189.426 33.8184 188.752 34.6638 187.235 34.6638C185.634 34.6638 185.044 33.8184 185.044 32.6348H186.224Z" fill="#DB0032"/>
<path d="M195.916 35.2559V45.993H193.473V35.2559H195.916Z" fill="#DB0032"/>
<path d="M54.0961 54.2782H52.9164C52.6636 54.2782 52.5793 53.94 52.7478 53.8555L53.0849 53.6019C53.3377 53.3482 53.6747 53.2637 54.0961 53.2637H55.2758C55.5286 53.2637 55.6128 53.6018 55.4443 53.6864L55.1073 53.94C54.8545 54.1091 54.5174 54.2782 54.0961 54.2782Z" fill="#DB0032"/>
<path d="M55.6156 52.6719L54.4359 52.7564C54.1831 52.7564 54.0988 52.5028 54.2674 52.3337L54.6044 51.9955C54.8572 51.7419 55.1943 51.5728 55.5313 51.5728L56.7111 51.4883C56.9638 51.4883 57.0481 51.7419 56.8796 51.911L56.5425 52.2492C56.2897 52.5028 55.9527 52.5874 55.6156 52.6719Z" fill="#DB0032"/>
<path d="M57.047 50.9811L55.9515 51.1501C55.6987 51.1501 55.6145 50.8965 55.783 50.7274L56.0358 50.3892C56.2886 50.1356 56.6256 49.9665 56.9627 49.882L58.0581 49.7129C58.3109 49.7129 58.3952 49.9665 58.2267 50.1356L57.9739 50.4738C57.7211 50.7274 57.384 50.8965 57.047 50.9811Z" fill="#DB0032"/>
<path d="M58.2275 49.12L57.1321 49.3736C56.8793 49.4581 56.795 49.12 56.8793 48.9509L57.1321 48.6127C57.3848 48.3591 57.6376 48.1054 58.059 48.0209L59.1544 47.7673C59.4072 47.6827 59.4915 48.0209 59.4072 48.19L59.1544 48.5282C58.9016 48.8663 58.6488 49.0354 58.2275 49.12Z" fill="#DB0032"/>
<path d="M59.4083 47.2599L58.3128 47.5981C58.06 47.6826 57.8915 47.429 58.06 47.1754L58.3128 46.8372C58.4813 46.499 58.8184 46.3299 59.1555 46.2454L60.2509 45.9072C60.5037 45.8227 60.6722 46.0763 60.5037 46.3299L60.2509 46.6681C59.9981 46.9217 59.7453 47.1754 59.4083 47.2599Z" fill="#DB0032"/>
<path d="M60.4194 45.3154L59.324 45.6535C59.1555 45.7381 58.9027 45.4845 59.0712 45.3154L59.2397 44.9772C59.4083 44.639 59.6611 44.3854 60.0824 44.3008L61.1778 43.8781C61.3464 43.7936 61.5992 44.0472 61.4306 44.2163L61.1778 44.5545C61.0093 44.8927 60.7565 45.1463 60.4194 45.3154Z" fill="#DB0032"/>
<path d="M61.2595 43.2866L60.2483 43.7939C60.0798 43.8784 59.827 43.6248 59.9113 43.4557L60.0798 43.033C60.2483 42.6948 60.5011 42.4412 60.8382 42.2721L61.8494 41.7648C62.0179 41.6803 62.2707 41.9339 62.1864 42.103L62.0179 42.5257C61.8494 42.8639 61.5966 43.1175 61.2595 43.2866Z" fill="#DB0032"/>
<path d="M61.9353 41.1727L60.9241 41.68C60.7556 41.7645 60.5028 41.5954 60.587 41.3418L60.7556 40.9191C60.9241 40.5809 61.1769 40.3273 61.4297 40.1582L62.4409 39.6509C62.6094 39.5664 62.8622 39.7354 62.7779 39.9891L62.6094 40.4118C62.5251 40.75 62.2723 41.0036 61.9353 41.1727Z" fill="#DB0032"/>
<path d="M62.5251 39.06L61.514 39.6518C61.3454 39.7363 61.0926 39.5672 61.1769 39.3136L61.3454 38.8909C61.4297 38.5527 61.6825 38.2145 62.0195 38.0454L62.9465 37.4536C63.115 37.3691 63.3678 37.5382 63.2835 37.7918L63.115 38.2145C63.0307 38.5527 62.7779 38.8909 62.5251 39.06Z" fill="#DB0032"/>
<path d="M62.9448 36.8627L62.0179 37.5391C61.8493 37.7082 61.5965 37.4545 61.6808 37.2854L61.7651 36.8627C61.8493 36.5245 62.0179 36.1864 62.3549 36.0173L63.2818 35.3409C63.4504 35.1718 63.7032 35.4255 63.6189 35.5946L63.5346 36.0173C63.4504 36.3555 63.1976 36.6936 62.9448 36.8627Z" fill="#DB0032"/>
<path d="M63.1976 34.7486L62.3549 35.5095C62.1864 35.6786 61.9336 35.5095 61.9336 35.2559L62.0179 34.8332C62.1021 34.495 62.2707 34.1568 62.5234 33.9032L63.3661 33.1423C63.5346 32.9732 63.7874 33.1423 63.7874 33.3959L63.7032 33.8186C63.6189 34.1568 63.4504 34.495 63.1976 34.7486Z" fill="#DB0032"/>
<path d="M63.2835 32.5494L62.4409 33.3103C62.2723 33.4794 62.0195 33.3103 62.0195 33.0567V32.6339C62.0195 32.2958 62.1881 31.9576 62.4409 31.704L63.2835 30.9431C63.452 30.774 63.7048 30.9431 63.7048 31.1967V31.6194C63.7048 31.9576 63.5363 32.2958 63.2835 32.5494Z" fill="#DB0032"/>
<path d="M63.2813 30.3522L62.5229 31.1976C62.3544 31.3667 62.1016 31.1976 62.1016 31.0285V30.6058C62.1016 30.2676 62.2701 29.9294 62.5229 29.5913L63.2813 28.7458C63.4498 28.5767 63.7026 28.7458 63.7026 28.9149V29.3376C63.6183 29.6758 63.5341 30.014 63.2813 30.3522Z" fill="#DB0032"/>
<path d="M63.1133 28.1539L62.3549 28.9993C62.1864 29.1684 61.9336 29.0838 61.9336 28.8302V28.4075C61.9336 28.0693 62.0179 27.6466 62.2707 27.393L62.9448 26.463C63.1133 26.2939 63.3661 26.3784 63.3661 26.6321V27.0548C63.3661 27.4775 63.2818 27.8157 63.1133 28.1539Z" fill="#DB0032"/>
<path d="M62.6918 25.9558L62.0177 26.8857C61.9334 27.0548 61.5963 26.9703 61.5963 26.8012L61.5121 26.3785C61.4278 26.0403 61.5121 25.6176 61.7649 25.364L62.439 24.434C62.5232 24.2649 62.8603 24.3494 62.8603 24.5185L62.9446 24.9412C63.0288 25.2794 62.9446 25.7021 62.6918 25.9558Z" fill="#DB0032"/>
<path d="M62.273 23.8425L61.6832 24.857C61.5989 25.0261 61.2619 24.9416 61.2619 24.7725L61.1776 24.3497C61.0933 24.0116 61.1776 23.5888 61.3461 23.3352L61.936 22.3207C62.0202 22.1516 62.3573 22.2361 62.3573 22.4052L62.4416 22.8279C62.4416 23.1661 62.4416 23.5043 62.273 23.8425Z" fill="#DB0032"/>
<path d="M61.5978 21.7275L61.0922 22.7421C61.0079 22.9112 60.6709 22.9112 60.6709 22.6575L60.5866 22.2348C60.5023 21.8966 60.5023 21.4739 60.6709 21.2203L61.1764 20.2057C61.2607 20.0366 61.5978 20.0366 61.5978 20.2903L61.682 20.713C61.7663 21.0512 61.7663 21.3894 61.5978 21.7275Z" fill="#DB0032"/>
<path d="M60.8383 19.7L60.417 20.799C60.3327 20.9681 59.9957 20.9681 59.9114 20.799L59.7429 20.2918C59.6586 19.9536 59.6586 19.5309 59.7429 19.1927L60.1642 18.0936C60.2485 17.9245 60.5855 17.9245 60.6698 18.0936L60.8383 18.5163C60.9226 18.9391 60.9226 19.3618 60.8383 19.7Z" fill="#DB0032"/>
<path d="M59.9125 17.6695L59.5754 18.7686C59.4912 18.9377 59.2384 18.9377 59.0699 18.7686L58.9013 18.3459C58.7328 18.0077 58.7328 17.6695 58.8171 17.3314L59.1541 16.2323C59.2384 16.0632 59.4912 16.0632 59.6597 16.2323L59.8282 16.655C59.9968 16.9932 59.9968 17.3314 59.9125 17.6695Z" fill="#DB0032"/>
<path d="M58.8165 15.7251L58.5637 16.8242C58.4795 17.0778 58.2267 17.0778 58.0581 16.8242L57.8896 16.4015C57.7211 16.0633 57.7211 15.7251 57.8054 15.387L58.0581 14.2879C58.1424 14.0342 58.3952 14.0342 58.5637 14.2879L58.7323 14.7106C58.8165 15.0488 58.9008 15.387 58.8165 15.7251Z" fill="#DB0032"/>
<path d="M57.638 13.8651L57.4695 14.9642C57.4695 15.2178 57.1324 15.2178 57.0481 15.0487L56.7953 14.7105C56.6268 14.3723 56.5425 14.0342 56.6268 13.696L56.7953 12.5969C56.7953 12.3433 57.1324 12.3433 57.2167 12.5124L57.4695 12.8506C57.638 13.1887 57.638 13.5269 57.638 13.8651Z" fill="#DB0032"/>
<path d="M56.2889 12.1756L56.2046 13.2747C56.2046 13.5283 55.8675 13.5283 55.7833 13.3592L55.5305 13.0211C55.2777 12.6829 55.1934 12.3447 55.2777 12.0065L55.362 10.9075C55.362 10.6538 55.699 10.6538 55.7833 10.8229L56.0361 11.1611C56.2046 11.4147 56.2889 11.7529 56.2889 12.1756Z" fill="#DB0032"/>
<path d="M54.8549 10.4836V11.6673C54.8549 11.9209 54.5179 12.0054 54.4336 11.8364L54.1808 11.4982C53.928 11.2445 53.8438 10.8218 53.8438 10.4836V9.30003C53.8438 9.04639 54.1808 8.96185 54.2651 9.13094L54.5179 9.46912C54.7707 9.80729 54.8549 10.1455 54.8549 10.4836Z" fill="#DB0032"/>
<path d="M53.3399 8.96216V10.1458C53.3399 10.3994 53.0871 10.484 52.9185 10.3149L52.5815 9.97669C52.3287 9.72306 52.1602 9.38488 52.1602 8.96216V7.77854C52.1602 7.52491 52.4129 7.44037 52.5815 7.60945L52.8343 7.94763C53.1713 8.20126 53.2556 8.62399 53.3399 8.96216Z" fill="#DB0032"/>
<path d="M51.6563 7.5255L51.7405 8.62457C51.7405 8.8782 51.4877 8.96275 51.3192 8.79366L50.9821 8.45548C50.7294 8.28639 50.5608 7.94822 50.5608 7.61004L50.4766 6.51096C50.4766 6.25733 50.7294 6.17279 50.8979 6.34188L51.2349 6.68005C51.4035 6.84914 51.572 7.10277 51.6563 7.5255Z" fill="#DB0032"/>
<path d="M49.8851 6.17236L50.0536 7.27143C50.0536 7.52506 49.8008 7.60961 49.6323 7.52506L49.2952 7.27143C49.0424 7.0178 48.7896 6.67962 48.7896 6.34144L48.6211 5.24237C48.6211 4.98874 48.8739 4.90419 49.0424 4.98874L49.3795 5.24237C49.6323 5.496 49.8008 5.83418 49.8851 6.17236Z" fill="#DB0032"/>
<path d="M48.0295 4.9882L48.2823 6.08728C48.3666 6.34091 48.1138 6.42545 47.861 6.34091L47.5239 6.08728C47.1869 5.83364 47.0183 5.58001 46.9341 5.24183L46.6813 4.14276C46.597 3.88913 46.9341 3.80458 47.1026 3.88913L47.4397 4.14276C47.7767 4.31185 47.9452 4.65002 48.0295 4.9882Z" fill="#DB0032"/>
<path d="M46.0915 3.88865L46.4286 4.98773C46.5129 5.15682 46.2601 5.41045 46.0915 5.24136L45.7545 5.07227C45.4174 4.90318 45.1646 4.56501 45.0804 4.22683L44.7433 3.12775C44.659 2.95867 44.9118 2.70503 45.0804 2.87412L45.5017 3.12775C45.7545 3.29684 46.0073 3.55048 46.0915 3.88865Z" fill="#DB0032"/>
<path d="M44.1546 2.95906L44.5759 4.05813C44.6602 4.22722 44.4074 4.48086 44.2389 4.39631L43.8175 4.14268C43.4805 3.97359 43.2277 3.71996 43.0592 3.38178L42.6378 2.2827C42.5536 2.11362 42.8064 1.85998 42.9749 1.94453L43.3962 2.11362C43.7333 2.36725 43.9861 2.62088 44.1546 2.95906Z" fill="#DB0032"/>
<path d="M42.1312 2.19873L42.6368 3.21326C42.721 3.38235 42.4682 3.63599 42.2997 3.55144L41.8784 3.38235C41.5413 3.21326 41.2885 2.95963 41.12 2.62145L40.6144 1.60692C40.5301 1.43783 40.7829 1.1842 40.9515 1.26875L41.2885 1.52238C41.6256 1.60692 41.9626 1.86056 42.1312 2.19873Z" fill="#DB0032"/>
<path d="M40.0275 1.60694L40.5331 2.53692C40.6174 2.70601 40.4489 2.95964 40.1961 2.8751L39.7747 2.70601C39.4377 2.62147 39.1006 2.36783 38.9321 2.02966L38.3422 1.01513C38.258 0.846038 38.4265 0.592405 38.6793 0.676949L39.1006 0.846038C39.5219 1.01513 39.859 1.26876 40.0275 1.60694Z" fill="#DB0032"/>
<path d="M37.8361 1.0994L38.5102 2.02938C38.5944 2.19847 38.4259 2.45211 38.2574 2.36756L37.8361 2.28302C37.499 2.19847 37.1619 1.94484 36.9934 1.69121L36.3193 0.76122C36.235 0.592132 36.4036 0.338499 36.5721 0.423043L36.9934 0.507587C37.3305 0.592132 37.6675 0.76122 37.8361 1.0994Z" fill="#DB0032"/>
<path d="M35.7275 0.760898L36.4016 1.69089C36.5701 1.85997 36.4016 2.11361 36.1488 2.11361L35.7275 2.02906C35.3904 1.85997 35.0533 1.69089 34.8006 1.35271L34.1264 0.422721C33.9579 0.253633 34.1264 0 34.3792 0L34.8006 0.0845443C35.1376 0.253633 35.4747 0.422721 35.7275 0.760898Z" fill="#DB0032"/>
<path d="M33.5361 0.507825L34.2944 1.35327C34.463 1.52236 34.2944 1.77599 34.0416 1.77599L33.6203 1.69144C33.2833 1.6069 32.9462 1.43781 32.6934 1.18418L31.935 0.338737C31.7665 0.169648 31.935 -0.0839844 32.1878 -0.0839844L32.6091 0.000559881C32.9462 0.0851041 33.2833 0.254193 33.5361 0.507825Z" fill="#DB0032"/>
<path d="M31.3466 0.508659L32.1893 1.26956C32.3578 1.43865 32.1893 1.69228 32.0207 1.69228H31.5994C31.2624 1.69228 30.9253 1.52319 30.5882 1.26956L29.7456 0.508659C29.5771 0.33957 29.7456 0.0859375 29.9141 0.0859375H30.3354C30.7568 0.0859375 31.0938 0.255026 31.3466 0.508659Z" fill="#DB0032"/>
<path d="M29.1575 0.592083L30.0001 1.35298C30.1686 1.52207 30.0844 1.7757 29.8316 1.7757H29.4103C29.0732 1.7757 28.6519 1.69116 28.3991 1.43753L27.5564 0.676627C27.3879 0.507539 27.4722 0.253906 27.725 0.253906H28.1463C28.4833 0.253906 28.8204 0.422995 29.1575 0.592083Z" fill="#DB0032"/>
<path d="M26.9661 0.929868L27.893 1.60622C28.0615 1.77531 27.9772 2.02894 27.7244 2.02894H27.3031C26.9661 2.02894 26.5447 1.9444 26.2919 1.77531L25.365 1.09896C25.1965 0.929868 25.2808 0.676235 25.5336 0.676235H25.9549C26.2919 0.591691 26.629 0.676235 26.9661 0.929868Z" fill="#DB0032"/>
<path d="M24.7744 1.35276L25.7855 1.94457C25.9541 2.02912 25.8698 2.36729 25.7013 2.36729L25.28 2.45184C24.9429 2.53638 24.5216 2.45184 24.2688 2.28275L23.3419 1.69094C23.1733 1.60639 23.2576 1.26822 23.4261 1.26822L23.8475 1.18367C24.1002 1.01458 24.5216 1.09913 24.7744 1.35276Z" fill="#DB0032"/>
<path d="M22.6655 1.86078L23.6767 2.36805C23.8452 2.53713 23.8452 2.87531 23.5924 2.87531L23.1711 2.95986C22.834 3.0444 22.4127 2.95986 22.1599 2.79077L21.1487 2.2835C20.9802 2.19896 20.9802 1.86078 21.233 1.86078L21.6543 1.77624C21.9914 1.69169 22.3284 1.69169 22.6655 1.86078Z" fill="#DB0032"/>
<path d="M20.6443 2.62055L21.6554 3.04327C21.824 3.12781 21.824 3.46599 21.5712 3.55053L21.1499 3.63508C20.8128 3.71962 20.3915 3.71962 20.0544 3.55053L19.0432 3.04327C18.8747 2.95872 18.8747 2.62055 19.1275 2.536H19.5488C19.8859 2.45146 20.3072 2.45146 20.6443 2.62055Z" fill="#DB0032"/>
<path d="M18.6236 3.46771L19.7191 3.89043C19.8876 3.97497 19.8876 4.31315 19.7191 4.39769L19.2978 4.56678C18.9607 4.73587 18.5394 4.73587 18.2023 4.56678L17.1069 4.14406C16.9383 4.05951 16.9383 3.72134 17.1069 3.63679L17.5282 3.46771C17.8652 3.38316 18.2866 3.38316 18.6236 3.46771Z" fill="#DB0032"/>
<path d="M16.5999 4.48131L17.6953 4.81949C17.8638 4.90404 17.9481 5.15767 17.6953 5.32676L17.274 5.49585C16.9369 5.66493 16.5999 5.66493 16.2628 5.58039L15.1674 5.24221C14.9988 5.15767 14.9146 4.90404 15.1674 4.73495L15.5887 4.56586C15.9257 4.39677 16.2628 4.39677 16.5999 4.48131Z" fill="#DB0032"/>
<path d="M14.7469 5.58004L15.8424 5.83368C16.0952 5.91822 16.0952 6.17185 15.9267 6.34094L15.5896 6.51003C15.2525 6.67912 14.9155 6.76366 14.5784 6.67912L13.483 6.42549C13.2302 6.34094 13.2302 6.08731 13.3987 5.91822L13.82 5.74913C14.0728 5.58004 14.4099 5.4955 14.7469 5.58004Z" fill="#DB0032"/>
<path d="M12.9774 6.84961L14.0729 7.0187C14.3256 7.0187 14.3256 7.35687 14.1571 7.44142L13.8201 7.69505C13.483 7.86414 13.1459 7.94868 12.8089 7.94868L11.7134 7.7796C11.4606 7.7796 11.4606 7.44142 11.6292 7.35687L11.9662 7.10324C12.219 6.93415 12.6404 6.84961 12.9774 6.84961Z" fill="#DB0032"/>
<path d="M11.2899 8.28566L12.4696 8.37021C12.7224 8.37021 12.8067 8.70839 12.5539 8.79293L12.2168 9.04656C11.9641 9.3002 11.5427 9.38474 11.2057 9.38474L10.026 9.3002C9.77317 9.3002 9.6889 8.96202 9.9417 8.87747L10.2788 8.62384C10.5316 8.37021 10.8686 8.20112 11.2899 8.28566Z" fill="#DB0032"/>
<path d="M9.68982 9.72266H10.8695C11.1223 9.72266 11.2066 10.0608 11.0381 10.1454L10.701 10.399C10.4482 10.6526 10.1111 10.7372 9.68982 10.7372H8.51012C8.25732 10.7372 8.17306 10.399 8.34159 10.3145L8.67864 10.0608C8.93144 9.89174 9.2685 9.72266 9.68982 9.72266Z" fill="#DB0032"/>
<path d="M8.17196 11.3287L9.35167 11.2441C9.60447 11.2441 9.68873 11.4978 9.5202 11.6669L9.18314 12.005C8.93035 12.2587 8.59329 12.4278 8.25623 12.4278L7.07652 12.5123C6.82373 12.5123 6.73946 12.2587 6.90799 12.0896L7.24505 11.836C7.49785 11.5823 7.83491 11.4132 8.17196 11.3287Z" fill="#DB0032"/>
<path d="M6.82598 13.1046L7.92142 12.9355C8.17422 12.9355 8.25848 13.1892 8.08995 13.3583L7.83716 13.6964C7.58436 13.9501 7.2473 14.1192 6.91025 14.2037L5.8148 14.3728C5.56201 14.3728 5.47774 14.1192 5.64627 13.9501L5.89907 13.6119C6.15186 13.2737 6.40466 13.1046 6.82598 13.1046Z" fill="#DB0032"/>
<path d="M5.56287 14.8803L6.65831 14.6266C6.91111 14.5421 6.99537 14.8803 6.91111 15.0493L6.65831 15.3875C6.40552 15.6412 6.15272 15.8948 5.7314 15.9793L4.63596 16.233C4.38316 16.3175 4.2989 15.9793 4.38316 15.8102L4.63596 15.4721C4.88875 15.1339 5.22581 14.9648 5.56287 14.8803Z" fill="#DB0032"/>
<path d="M4.38348 16.7395L5.47892 16.4013C5.64745 16.3168 5.90025 16.5704 5.73172 16.8241L5.47892 17.1622C5.31039 17.5004 4.97333 17.6695 4.63628 17.8386L3.54083 18.1768C3.3723 18.1768 3.20377 17.9231 3.28804 17.7541L3.54083 17.4159C3.79363 17.0777 4.04642 16.8241 4.38348 16.7395Z" fill="#DB0032"/>
<path d="M3.45571 18.6856L4.55115 18.2629C4.71968 18.1783 4.97248 18.432 4.80395 18.6011L4.55115 18.9392C4.38262 19.2774 4.12983 19.5311 3.7085 19.6156L2.61306 20.0383C2.44453 20.1229 2.19174 19.8692 2.36027 19.7001L2.61306 19.4465C2.78159 19.1083 3.11865 18.8547 3.45571 18.6856Z" fill="#DB0032"/>
<path d="M2.52735 20.713L3.6228 20.2902C3.79133 20.2057 4.04412 20.4593 3.95986 20.6284L3.79133 21.0511C3.6228 21.3893 3.37 21.6429 3.03294 21.812L2.02177 22.3193C1.85324 22.4038 1.60044 22.1502 1.68471 21.9811L1.85324 21.5584C1.9375 21.1357 2.27456 20.882 2.52735 20.713Z" fill="#DB0032"/>
<path d="M1.85548 22.8281L2.86666 22.3208C3.03519 22.2363 3.28798 22.4054 3.20372 22.659L3.03519 23.0817C2.86666 23.4199 2.69813 23.6735 2.36107 23.8426L1.34989 24.3499C1.18136 24.4344 0.928566 24.2653 1.01283 24.0117L1.18136 23.589C1.26563 23.2508 1.51842 22.9972 1.85548 22.8281Z" fill="#DB0032"/>
<path d="M1.2634 24.9419L2.19032 24.3501C2.35884 24.2656 2.61164 24.4347 2.52737 24.6883L2.35884 25.111C2.27458 25.4492 2.02179 25.7874 1.68473 25.9565L0.842078 26.5483C0.673548 26.6328 0.420754 26.4637 0.505019 26.2101L0.673548 25.7874C0.757813 25.4492 1.01061 25.111 1.2634 24.9419Z" fill="#DB0032"/>
<path d="M0.8432 27.1384L1.77011 26.462C1.93864 26.2929 2.19144 26.5466 2.10717 26.7156L2.02291 27.1384C1.93864 27.4765 1.77011 27.8147 1.43305 27.9838L0.506141 28.6602C0.337611 28.8293 0.0848164 28.5756 0.169081 28.4065L0.253346 27.9838C0.337611 27.6456 0.590405 27.3075 0.8432 27.1384Z" fill="#DB0032"/>
<path d="M0.589854 29.2528L1.4325 28.4919C1.60103 28.3228 1.85383 28.4919 1.85383 28.7455L1.76956 29.1682C1.6853 29.5064 1.51677 29.8446 1.26397 30.0982L0.421324 30.8591C0.252795 31.0282 0 30.8591 0 30.6055L0.0842648 30.1828C0.16853 29.8446 0.337059 29.5064 0.589854 29.2528Z" fill="#DB0032"/>
<path d="M0.507262 31.4501L1.34991 30.6892C1.51844 30.5201 1.77123 30.6892 1.77123 30.9428V31.3655C1.77123 31.7037 1.6027 32.0419 1.34991 32.2955L0.507262 33.0564C0.338732 33.2255 0.0859375 33.0564 0.0859375 32.8028V32.38C0.0859375 32.0419 0.254467 31.7037 0.507262 31.4501Z" fill="#DB0032"/>
<path d="M0.507262 33.6499L1.26565 32.8044C1.43417 32.6353 1.68697 32.8044 1.68697 32.9735V33.3962C1.68697 33.7344 1.51844 34.0726 1.26565 34.4108L0.507262 35.2562C0.338732 35.4253 0.0859375 35.2562 0.0859375 35.0871V34.6644C0.170202 34.3262 0.254467 33.988 0.507262 33.6499Z" fill="#DB0032"/>
<path d="M0.758934 35.848L1.43305 34.918C1.60158 34.749 1.85438 34.8335 1.85438 35.0871V35.5099C1.85438 35.848 1.77011 36.2708 1.51732 36.5244L0.843199 37.4544C0.67467 37.6235 0.421875 37.5389 0.421875 37.2853V36.8626C0.421875 36.5244 0.50614 36.1862 0.758934 35.848Z" fill="#DB0032"/>
<path d="M1.09689 38.0456L1.68675 37.1156C1.77101 36.9465 2.10807 37.0311 2.10807 37.2001L2.19234 37.6229C2.2766 37.961 2.19234 38.3838 1.93954 38.6374L1.26542 39.5674C1.18116 39.821 0.928364 39.7365 0.844099 39.4828V39.0601C0.759834 38.7219 0.844099 38.3838 1.09689 38.0456Z" fill="#DB0032"/>
<path d="M1.60174 40.1594L2.19159 39.1449C2.27586 38.9758 2.61292 39.0604 2.61292 39.2294L2.69718 39.7367C2.78145 40.0749 2.69718 40.4976 2.52865 40.7512L1.9388 41.7658C1.85453 41.9349 1.51747 41.8503 1.51747 41.6812L1.43321 41.2585C1.34894 40.8358 1.34894 40.4976 1.60174 40.1594Z" fill="#DB0032"/>
<path d="M2.1928 42.273L2.69839 41.2585C2.78266 41.0894 3.11972 41.0894 3.11972 41.343L3.20398 41.7657C3.37251 42.1039 3.37251 42.4421 3.20398 42.7803L2.69839 43.7948C2.61413 43.9639 2.27707 43.9639 2.27707 43.7103L2.1928 43.2875C2.02427 42.9494 2.02427 42.6112 2.1928 42.273Z" fill="#DB0032"/>
<path d="M3.03265 44.386L3.45397 43.287C3.53824 43.1179 3.8753 43.1179 3.95956 43.287L4.12809 43.7097C4.21235 44.0479 4.21235 44.4706 4.12809 44.8088L3.70677 45.9078C3.6225 46.0769 3.28544 46.0769 3.20118 45.9078L3.03265 45.4851C2.86412 45.0624 2.86412 44.6397 3.03265 44.386Z" fill="#DB0032"/>
<path d="M3.96233 46.3314L4.29939 45.2323C4.38366 45.0632 4.63645 45.0632 4.80498 45.2323L4.88925 45.655C5.05778 45.9932 5.05778 46.3314 4.97351 46.6695L4.63645 47.7686C4.55219 47.9377 4.21513 47.9377 4.13086 47.7686L3.96233 47.3459C3.79381 47.0923 3.79381 46.6695 3.96233 46.3314Z" fill="#DB0032"/>
<path d="M4.9724 48.2756L5.2252 47.1766C5.30946 46.9229 5.56226 46.9229 5.73079 47.1766L5.89932 47.5147C6.06785 47.8529 6.06785 48.1911 5.98358 48.5293L5.73079 49.6283C5.64652 49.882 5.39373 49.882 5.2252 49.6283L5.05667 49.2056C4.9724 48.952 4.88814 48.6138 4.9724 48.2756Z" fill="#DB0032"/>
<path d="M6.15234 50.1354L6.32087 49.0364C6.32087 48.7827 6.65793 48.7827 6.7422 48.9518L6.99499 49.29C7.16352 49.6282 7.24779 49.9664 7.16352 50.3045L6.99499 51.4036C6.99499 51.6572 6.65793 51.6572 6.57367 51.4882L6.32087 51.15C6.23661 50.8118 6.15234 50.4736 6.15234 50.1354Z" fill="#DB0032"/>
<path d="M7.5 51.8269L7.66853 50.7278C7.66853 50.4741 8.00559 50.4741 8.08985 50.6432L8.34265 50.9814C8.59544 51.3196 8.67971 51.6578 8.59544 51.9959L8.51118 53.095C8.51118 53.3486 8.17412 53.3486 8.08985 53.1796L7.83706 52.8414C7.58427 52.5877 7.5 52.2496 7.5 51.8269Z" fill="#DB0032"/>
<path d="M8.93359 53.5168V52.3332C8.93359 52.0796 9.27065 51.9951 9.35492 52.1641L9.60771 52.5023C9.86051 52.7559 9.94477 53.1787 9.94477 53.5168V54.7005C9.94477 54.9541 9.60771 55.0386 9.52345 54.8696L9.27065 54.5314C9.01786 54.1932 8.93359 53.855 8.93359 53.5168Z" fill="#DB0032"/>
<path d="M10.5312 55.0383V53.8547C10.5312 53.6011 10.784 53.5165 10.9526 53.6856L11.2896 54.0238C11.5424 54.2774 11.711 54.6156 11.711 55.0383V56.222C11.711 56.4756 11.4582 56.5601 11.2896 56.391L11.0368 56.0529C10.6155 55.7992 10.5312 55.4611 10.5312 55.0383Z" fill="#DB0032"/>
<path d="M12.135 56.4753L12.0508 55.3762C12.0508 55.1226 12.3036 55.038 12.4721 55.2071L12.8092 55.5453C13.062 55.7989 13.2305 56.1371 13.3148 56.4753L13.399 57.5743C13.399 57.828 13.1462 57.9125 12.9777 57.7434L12.6406 57.4898C12.3878 57.2362 12.2193 56.898 12.135 56.4753Z" fill="#DB0032"/>
<path d="M13.9029 57.8297L13.7344 56.7306C13.7344 56.477 13.9872 56.3925 14.1557 56.477L14.4928 56.7306C14.7456 56.9843 14.9983 57.3225 14.9983 57.6606L15.1669 58.7597C15.1669 59.0133 14.9141 59.0979 14.7456 59.0133L14.4085 58.7597C14.1557 58.5061 13.9872 58.1679 13.9029 57.8297Z" fill="#DB0032"/>
<path d="M15.7583 59.0133L15.5055 57.9142C15.4212 57.6606 15.7583 57.5761 15.9268 57.6606L16.2639 57.9142C16.6009 58.1679 16.7695 58.4215 16.8537 58.7597L17.1065 59.8588C17.1908 60.1124 16.8537 60.1969 16.6852 60.1124L16.3481 59.8588C16.0111 59.6897 15.8425 59.3515 15.7583 59.0133Z" fill="#DB0032"/>
<path d="M17.6975 60.1116L17.3605 59.0125C17.2762 58.8434 17.529 58.5898 17.6975 58.7589L18.0346 59.0125C18.3717 59.1816 18.6245 59.5198 18.7087 59.858L19.0458 60.957C19.13 61.1261 18.8773 61.3798 18.7087 61.2107L18.3717 60.957C18.0346 60.7034 17.7818 60.4498 17.6975 60.1116Z" fill="#DB0032"/>
<path d="M19.6334 61.0419L19.212 59.9429C19.1278 59.7738 19.3806 59.5201 19.5491 59.6047L19.9704 59.7738C20.3075 59.9429 20.5603 60.1965 20.7288 60.5347L21.1501 61.6337C21.2344 61.8028 20.9816 62.0565 20.8131 61.9719L20.3918 61.8028C20.0547 61.6337 19.8019 61.3801 19.6334 61.0419Z" fill="#DB0032"/>
<path d="M21.7384 61.8031L21.2329 60.7886C21.1486 60.6195 21.3171 60.3658 21.5699 60.4504L21.9912 60.6195C22.3283 60.7886 22.5811 61.0422 22.7496 61.3804L23.2552 62.3949C23.3395 62.564 23.0867 62.8176 22.9182 62.7331L22.4968 62.564C22.1598 62.3949 21.8227 62.1413 21.7384 61.8031Z" fill="#DB0032"/>
<path d="M23.7641 62.4789L23.1743 61.4643C23.09 61.2953 23.2585 61.0416 23.5113 61.1262L23.9326 61.2953C24.2697 61.3798 24.6068 61.6334 24.7753 61.9716L25.3652 62.9861C25.4494 63.1552 25.2809 63.4089 25.0281 63.3243L24.6068 63.1552C24.2697 62.9861 24.0169 62.7325 23.7641 62.4789Z" fill="#DB0032"/>
<path d="M25.9543 62.9021L25.2802 61.9722C25.196 61.8031 25.3645 61.5494 25.533 61.634L25.9543 61.7185C26.2914 61.8031 26.6285 62.0567 26.797 62.3103L27.4711 63.2403C27.5554 63.4094 27.3868 63.663 27.2183 63.5785L26.797 63.494C26.4599 63.4094 26.1229 63.2403 25.9543 62.9021Z" fill="#DB0032"/>
<path d="M28.1443 63.2394L27.4702 62.3094C27.3017 62.1404 27.4702 61.8867 27.723 61.8867L28.1443 61.9713C28.4814 62.0558 28.8184 62.2249 29.0712 62.4785L29.7453 63.4085C29.9139 63.5776 29.7453 63.8312 29.4925 63.8312L29.0712 63.7467C28.6499 63.7467 28.3128 63.5776 28.1443 63.2394Z" fill="#DB0032"/>
<path d="M30.252 63.4928L29.4936 62.6473C29.3251 62.4782 29.4936 62.2246 29.7464 62.2246L30.1677 62.3092C30.5048 62.3937 30.8419 62.5628 31.0947 62.8164L31.853 63.6619C32.0216 63.831 31.853 64.0846 31.6002 64.0846L31.1789 64C30.8419 63.9155 30.5048 63.7464 30.252 63.4928Z" fill="#DB0032"/>
<path d="M32.4437 63.4942L31.6011 62.7333C31.4325 62.5642 31.6011 62.3105 31.7696 62.3105H32.1909C32.528 62.3105 32.865 62.4796 33.2021 62.7333L34.0447 63.4942C34.2133 63.6633 34.0447 63.9169 33.8762 63.9169H33.4549C33.1178 63.9169 32.7808 63.7478 32.4437 63.4942Z" fill="#DB0032"/>
<path d="M34.6335 63.4082L33.7908 62.6473C33.6223 62.4782 33.7065 62.2246 33.9593 62.2246H34.3807C34.7177 62.2246 35.139 62.3092 35.3918 62.5628L36.2345 63.3237C36.403 63.4928 36.3187 63.7464 36.066 63.7464H35.6446C35.3076 63.7464 34.9705 63.5773 34.6335 63.4082Z" fill="#DB0032"/>
<path d="M36.8232 63.1557L35.8963 62.4794C35.7277 62.3103 35.812 62.0566 36.0648 62.0566H36.4861C36.8232 62.0566 37.2445 62.1412 37.4973 62.3103L38.4242 62.9866C38.5927 63.1557 38.5085 63.4093 38.2557 63.4093H37.8344C37.4973 63.4093 37.1602 63.3248 36.8232 63.1557Z" fill="#DB0032"/>
<path d="M39.0149 62.7318L38.088 62.14C37.9194 62.0555 38.0037 61.7173 38.1722 61.7173L38.5935 61.6328C38.9306 61.5482 39.3519 61.6328 39.6047 61.8019L40.5316 62.3937C40.7002 62.4782 40.6159 62.8164 40.4474 62.8164L40.026 62.9009C39.689 62.9855 39.2677 62.9009 39.0149 62.7318Z" fill="#DB0032"/>
<path d="M41.1208 62.1414L40.1096 61.6342C39.9411 61.5496 39.9411 61.2115 40.1939 61.2115L40.6152 61.1269C40.9523 61.0424 41.3736 61.1269 41.6264 61.296L42.6376 61.8033C42.8061 61.8878 42.8061 62.226 42.5533 62.226H42.132C41.7949 62.3105 41.4579 62.3105 41.1208 62.1414Z" fill="#DB0032"/>
<path d="M43.2285 61.3806L42.1331 60.9579C41.9646 60.8733 41.9645 60.5352 42.2173 60.4506L42.6387 60.3661C42.9757 60.2815 43.3971 60.2815 43.7341 60.4506L44.7453 60.9579C44.9138 61.0424 44.9138 61.3806 44.661 61.4652L44.2397 61.5497C43.9026 61.5497 43.4813 61.5497 43.2285 61.3806Z" fill="#DB0032"/>
<path d="M45.1672 60.5345L44.0717 60.1118C43.9032 60.0272 43.9032 59.689 44.0717 59.6045L44.493 59.4354C44.8301 59.2663 45.2514 59.2663 45.5885 59.4354L46.6839 59.8581C46.8525 59.9427 46.8525 60.2808 46.6839 60.3654L46.2626 60.5345C45.9255 60.7036 45.5042 60.7036 45.1672 60.5345Z" fill="#DB0032"/>
<path d="M47.1886 59.5198L46.0931 59.1817C45.9246 59.0971 45.8403 58.8435 46.0931 58.6744L46.5145 58.5053C46.8515 58.3362 47.1886 58.3362 47.5256 58.4208L48.6211 58.7589C48.7896 58.8435 48.8739 59.0971 48.6211 59.2662L48.1998 59.4353C47.8627 59.6044 47.5256 59.6044 47.1886 59.5198Z" fill="#DB0032"/>
<path d="M49.0433 58.4213L47.9478 58.1677C47.695 58.0831 47.695 57.8295 47.8635 57.6604L48.2849 57.4913C48.6219 57.3222 48.959 57.2377 49.296 57.3222L50.3915 57.5759C50.6443 57.6604 50.6443 57.914 50.4758 58.0831L50.0544 58.2522C49.7174 58.4213 49.3803 58.5058 49.0433 58.4213Z" fill="#DB0032"/>
<path d="M50.8128 57.1518L49.7173 56.9827C49.4645 56.9827 49.4646 56.6445 49.6331 56.56L49.9701 56.3064C50.3072 56.1373 50.6443 56.0527 50.9813 56.0527L52.0768 56.2218C52.3296 56.2218 52.3296 56.56 52.161 56.6445L51.824 56.8982C51.5712 57.1518 51.1499 57.2364 50.8128 57.1518Z" fill="#DB0032"/>
<path d="M52.4964 55.8003L51.401 55.7157C51.1482 55.7157 51.0639 55.3775 51.3167 55.293L51.6538 55.0394C51.9065 54.7857 52.3279 54.7012 52.6649 54.7012L53.8446 54.7857C54.0974 54.7857 54.1817 55.1239 53.9289 55.2084L53.5918 55.4621C53.2548 55.7157 52.9177 55.8003 52.4964 55.8003Z" fill="#DB0032"/>
<path fill-rule="evenodd" clip-rule="evenodd" d="M28.9883 7.18702L30.7578 5.91885L30.0837 3.7207L31.8533 5.07341L33.7071 3.7207L33.033 5.83431L34.8026 7.18702H32.6117L31.9376 9.30062L31.2634 7.18702H28.9883Z" fill="#DB0032"/>
<path fill-rule="evenodd" clip-rule="evenodd" d="M19.7176 10.2309L20.8973 8.28634L19.4648 6.59546L21.5715 7.10272L22.7512 5.1582L22.9197 7.4409L25.1106 7.94816L23.0882 8.79361L23.2568 11.0763L21.8243 9.38542L19.7176 10.2309Z" fill="#DB0032"/>
<path fill-rule="evenodd" clip-rule="evenodd" d="M12.3042 16.5718L12.7255 14.3737L10.7031 13.2746L12.894 12.9364L13.2311 10.7383L14.2422 12.7673L16.5174 12.3446L14.9164 13.951L15.9275 15.98L13.9052 14.9655L12.3042 16.5718Z" fill="#DB0032"/>
<path fill-rule="evenodd" clip-rule="evenodd" d="M7.92136 25.2803L7.41578 23.0821L5.14062 22.913L7.07872 21.7294L6.57313 19.5312L8.25842 20.9685L10.1965 19.7849L9.2696 21.8985L11.0392 23.3357L8.76401 23.1667L7.92136 25.2803Z" fill="#DB0032"/>
<path fill-rule="evenodd" clip-rule="evenodd" d="M7.16189 34.9175L5.89792 33.1421L3.70703 33.8185L5.05527 32.043L3.70703 30.1831L5.81365 30.8594L7.16189 29.084V31.2821L9.26851 32.043L7.16189 32.7194V34.9175Z" fill="#DB0032"/>
<path fill-rule="evenodd" clip-rule="evenodd" d="M10.1965 44.2175L8.25842 43.0339L6.57313 44.4711L7.07872 42.3575L5.14062 41.1739L7.41578 41.0048L7.92136 38.8066L8.76401 40.8357L11.0392 40.6666L9.35387 42.1039L10.1965 44.2175Z" fill="#DB0032"/>
<path fill-rule="evenodd" clip-rule="evenodd" d="M16.5174 51.6569L14.3265 51.2342L13.2311 53.2632L12.894 51.0651L10.7031 50.7269L12.7255 49.7124L12.3042 47.4297L13.9052 49.036L15.9275 48.0215L14.9164 50.0506L16.5174 51.6569Z" fill="#DB0032"/>
<path fill-rule="evenodd" clip-rule="evenodd" d="M25.1949 56.0539L23.004 56.5612L22.8354 58.8439L21.6557 56.8994L19.4648 57.4066L20.8973 55.7157L19.7176 53.7712L21.8243 54.7012L23.2568 52.9258L23.0882 55.2085L25.1949 56.0539Z" fill="#DB0032"/>
<path fill-rule="evenodd" clip-rule="evenodd" d="M34.8026 56.8148L33.033 58.0829L33.7071 60.2811L31.9376 58.9284L30.0837 60.2811L30.7578 58.1675L28.9883 56.8148H31.1792L31.9376 54.7012L32.6117 56.8148H34.8026Z" fill="#DB0032"/>
<path fill-rule="evenodd" clip-rule="evenodd" d="M44.0687 53.7712L42.889 55.7157L44.3215 57.4066L42.2149 56.8994L41.0352 58.8439L40.8667 56.5612L38.6758 56.0539L40.6981 55.2085L40.5296 52.9258L41.9621 54.7012L44.0687 53.7712Z" fill="#DB0032"/>
<path fill-rule="evenodd" clip-rule="evenodd" d="M51.4867 47.4297L51.0654 49.7124L53.0877 50.7269L50.8968 51.0651L50.5598 53.2632L49.5486 51.2342L47.2734 51.6569L48.8745 50.0506L47.8633 48.0215L49.8857 49.036L51.4867 47.4297Z" fill="#DB0032"/>
<path fill-rule="evenodd" clip-rule="evenodd" d="M55.8678 38.8066L56.3734 40.9202L58.6485 41.1739L56.7105 42.273L57.216 44.4711L55.5307 43.0339L53.5926 44.2175L54.5196 42.1884L52.75 40.6666L55.0252 40.8357L55.8678 38.8066Z" fill="#DB0032"/>
<path fill-rule="evenodd" clip-rule="evenodd" d="M56.6262 29.084L57.8901 30.8594L60.081 30.1831L58.7328 31.9585L60.081 33.8185L57.9744 33.1421L56.6262 34.9175V32.7194L54.5195 32.043L56.6262 31.3667V29.084Z" fill="#DB0032"/>
<path fill-rule="evenodd" clip-rule="evenodd" d="M53.5926 19.7849L55.5307 20.9685L57.216 19.5312L56.7105 21.6449L58.6485 22.8285L56.3734 22.9976L55.8678 25.1957L55.0252 23.1667L52.75 23.3357L54.5196 21.8985L53.5926 19.7849Z" fill="#DB0032"/>
<path fill-rule="evenodd" clip-rule="evenodd" d="M47.2734 12.3446L49.5486 12.7673L50.5598 10.7383L50.8968 12.9364L53.0877 13.2746L51.0654 14.2891L51.4867 16.5718L49.8857 14.9655L47.8633 15.98L48.8745 13.951L47.2734 12.3446Z" fill="#DB0032"/>
<path fill-rule="evenodd" clip-rule="evenodd" d="M38.6758 7.94816L40.7824 7.4409L41.0352 5.1582L42.1306 7.10272L44.3215 6.59546L42.889 8.28634L44.0687 10.2309L42.0464 9.30087L40.5296 11.0763L40.6981 8.79361L38.6758 7.94816Z" fill="#DB0032"/>
<path d="M31.9362 53.3478C20.2234 53.3478 10.6172 43.7943 10.6172 31.9581C10.6172 20.2064 20.1391 10.5684 31.9362 10.5684C43.7333 10.5684 53.2552 20.1219 53.2552 31.9581C53.2552 43.7943 43.649 53.3478 31.9362 53.3478ZM31.9362 11.2447C20.5604 11.2447 11.207 20.5446 11.207 32.0426C11.207 43.4561 20.4762 52.8405 31.9362 52.8405C43.3119 52.8405 52.6653 43.5406 52.6653 32.0426C52.5811 20.5446 43.3119 11.2447 31.9362 11.2447Z" fill="#DB0032"/>
<path d="M31.9362 53.3478C20.2234 53.3478 10.6172 43.7943 10.6172 31.9581C10.6172 20.2064 20.1391 10.5684 31.9362 10.5684C43.7333 10.5684 53.2552 20.1219 53.2552 31.9581C53.2552 43.7943 43.649 53.3478 31.9362 53.3478ZM31.9362 11.2447C20.5604 11.2447 11.207 20.5446 11.207 32.0426C11.207 43.4561 20.4762 52.8405 31.9362 52.8405C43.3119 52.8405 52.6653 43.5406 52.6653 32.0426C52.5811 20.5446 43.3119 11.2447 31.9362 11.2447Z" fill="#DB0032"/>
<path fill-rule="evenodd" clip-rule="evenodd" d="M31.0096 14.0352C32.9477 14.0352 34.633 15.0497 35.4756 16.5715C34.7172 15.6415 33.5375 15.0497 32.2735 15.0497C29.9984 15.0497 28.1446 16.9097 28.1446 19.1924C28.1446 21.4751 29.9984 23.335 32.2735 23.335C33.5375 23.335 34.7172 22.7432 35.4756 21.8132C34.5487 23.335 32.8634 24.3496 31.0096 24.3496C28.1446 24.3496 25.7852 21.9823 25.7852 19.1078C25.8694 16.3179 28.1446 14.0352 31.0096 14.0352Z" fill="#DB0032"/>
<path fill-rule="evenodd" clip-rule="evenodd" d="M37.1602 16.7402L38.3399 18.262L40.1095 17.6702L39.014 19.192L40.1095 20.7138L38.3399 20.2065L37.2445 21.7283V19.7838L35.3906 19.2766L37.2445 18.6848L37.1602 16.7402Z" fill="#DB0032"/>
<path fill-rule="evenodd" clip-rule="evenodd" d="M19.3824 29.9292C19.2982 27.9847 20.7307 26.3784 22.6688 26.2938C24.6069 26.2093 26.2079 27.6465 26.2922 29.5911C26.3764 31.5356 24.9439 33.1419 23.0058 33.2265C21.152 33.311 19.4667 31.8738 19.3824 29.9292ZM35.14 24.6875C36.0669 26.9702 36.9095 29.0838 35.8983 31.1974C35.8983 31.1974 35.3085 32.7192 33.1176 33.7337C32.7805 33.9028 32.4435 34.0719 32.1064 34.3255C31.348 34.0719 30.8425 33.7337 30.5897 33.1419C32.9491 32.6347 34.9714 31.7892 34.5501 29.5911C34.2973 28.6611 34.1288 28.1538 33.4547 27.1393L35.14 24.6875ZM30.0841 35.9319C28.7358 37.3691 27.8089 39.3137 28.8201 41.9345C30.5897 46.4154 33.6232 49.0363 33.876 49.2899C33.876 49.2899 24.8597 43.6254 22.9216 38.9755C21.6576 36.0164 23.6799 34.0719 26.4607 33.7337C26.882 33.6492 27.3876 33.6492 27.8932 33.5646C28.0617 33.8183 28.146 34.1565 28.3988 34.4101C28.483 34.5792 28.9886 35.2555 30.0841 35.9319Z" fill="#DB0032"/>
<path fill-rule="evenodd" clip-rule="evenodd" d="M37.5 30.8589C37.5 28.9144 39.0168 27.3926 40.9549 27.3926C42.8929 27.3926 44.4097 28.9144 44.4097 30.8589C44.4097 32.8034 42.8929 34.3252 40.9549 34.3252C39.101 34.3252 37.5 32.8034 37.5 30.8589Z" fill="#DB0032"/>
<path fill-rule="evenodd" clip-rule="evenodd" d="M38.5951 35.0861C35.8144 35.1707 29.7473 35.9316 30.0001 32.3807C30.0844 30.7744 31.6011 28.1535 33.2022 25.7017C32.5281 25.9554 31.7697 26.0399 31.0956 26.0399C30.2529 26.0399 29.4945 25.8708 28.7361 25.6172C27.9778 28.1535 27.3036 31.8735 28.9047 34.0716C28.9047 34.0716 29.7473 35.4243 32.0225 36.1852C34.2976 36.8616 38.5951 38.8906 37.5839 43.5406C36.5728 48.1905 33.9606 51.2341 33.7078 51.5723C33.7078 51.5723 41.7129 44.5551 42.8926 39.6515C43.651 36.6079 41.3759 35.0016 38.5951 35.0861Z" fill="#DB0032"/>
</g>
<defs>
<clipPath id="clip0">
<rect width="196" height="64" fill="white"/>
</clipPath>
</defs>
</svg>
